<svg viewBox="0 0 1286.35 612.548"  version="1.1" xmlns="http://www.w3.org/2000/svg">
<g id="slice:36:1_2_2:14">
<path d="M125.255,215.764 L215.764,215.764 L215.764,306.274 L125.255,306.274 L125.255,215.764" stroke="none" fill-opacity="0.75" fill="#4DA6FF"/>
<path d="M125.255,215.764 L215.764,215.764 L215.764,306.274 L125.255,306.274 L125.255,215.764" stroke="black" fill="none"/>
</g>
<g id="slice:37:1_4_2:14">
<path d="M125.255,396.784 L215.764,396.784 L215.764,487.293 L125.255,487.293 L125.255,396.784" stroke="none" fill-opacity="0.75" fill="#4DA6FF"/>
<path d="M125.255,396.784 L215.764,396.784 L215.764,487.293 L125.255,487.293 L125.255,396.784" stroke="black" fill="none"/>
</g>
<g id="slice:38:2_1_2:14">
<path d="M215.764,125.255 L306.274,125.255 L306.274,215.764 L215.764,215.764 L215.764,125.255" stroke="none" fill-opacity="0.75" fill="#4DA6FF"/>
<path d="M215.764,125.255 L306.274,125.255 L306.274,215.764 L215.764,215.764 L215.764,125.255" stroke="black" fill="none"/>
</g>
<g id="slice:39:2_3_2:14">
<path d="M215.764,306.274 L306.274,306.274 L306.274,396.784 L215.764,396.784 L215.764,306.274" stroke="none" fill-opacity="0.75" fill="#4DA6FF"/>
<path d="M215.764,306.274 L306.274,306.274 L306.274,396.784 L215.764,396.784 L215.764,306.274" stroke="black" fill="none"/>
</g>
<g id="slice:41:3_2_2:14">
<path d="M306.274,215.764 L396.784,215.764 L396.784,306.274 L306.274,306.274 L306.274,215.764" stroke="none" fill-opacity="0.75" fill="#4DA6FF"/>
<path d="M306.274,215.764 L396.784,215.764 L396.784,306.274 L306.274,306.274 L306.274,215.764" stroke="black" fill="none"/>
</g>
<g id="slice:42:3_4_2:14">
<path d="M306.274,396.784 L396.784,396.784 L396.784,487.293 L306.274,487.293 L306.274,396.784" stroke="none" fill-opacity="0.75" fill="#4DA6FF"/>
<path d="M306.274,396.784 L396.784,396.784 L396.784,487.293 L306.274,487.293 L306.274,396.784" stroke="black" fill="none"/>
</g>
<g id="slice:43:4_1_2:14">
<path d="M396.784,125.255 L487.293,125.255 L487.293,215.764 L396.784,215.764 L396.784,125.255" stroke="none" fill-opacity="0.75" fill="#4DA6FF"/>
<path d="M396.784,125.255 L487.293,125.255 L487.293,215.764 L396.784,215.764 L396.784,125.255" stroke="black" fill="none"/>
</g>
<g id="slice:44:4_3_2:14">
<path d="M396.784,306.274 L487.293,306.274 L487.293,396.784 L396.784,396.784 L396.784,306.274" stroke="none" fill-opacity="0.75" fill="#4DA6FF"/>
<path d="M396.784,306.274 L487.293,306.274 L487.293,396.784 L396.784,396.784 L396.784,306.274" stroke="black" fill="none"/>
</g>
<g id="slice:48:1_1_2:14">
<path d="M125.255,125.255 L215.764,125.255 L215.764,215.764 L125.255,215.764 L125.255,125.255" stroke="none" fill-opacity="0.75" fill="#FF4040"/>
<path d="M125.255,125.255 L215.764,125.255 L215.764,215.764 L125.255,215.764 L125.255,125.255" stroke="black" fill="none"/>
</g>
<g id="slice:49:1_3_2:14">
<path d="M125.255,306.274 L215.764,306.274 L215.764,396.784 L125.255,396.784 L125.255,306.274" stroke="none" fill-opacity="0.75" fill="#FF4040"/>
<path d="M125.255,306.274 L215.764,306.274 L215.764,396.784 L125.255,396.784 L125.255,306.274" stroke="black" fill="none"/>
</g>
<g id="slice:50:2_2_2:14">
<path d="M215.764,215.764 L306.274,215.764 L306.274,306.274 L215.764,306.274 L215.764,215.764" stroke="none" fill-opacity="0.75" fill="#FF4040"/>
<path d="M215.764,215.764 L306.274,215.764 L306.274,306.274 L215.764,306.274 L215.764,215.764" stroke="black" fill="none"/>
</g>
<g id="slice:51:2_4_2:14">
<path d="M215.764,396.784 L306.274,396.784 L306.274,487.293 L215.764,487.293 L215.764,396.784" stroke="none" fill-opacity="0.75" fill="#FF4040"/>
<path d="M215.764,396.784 L306.274,396.784 L306.274,487.293 L215.764,487.293 L215.764,396.784" stroke="black" fill="none"/>
</g>
<g id="slice:52:3_1_2:14">
<path d="M306.274,125.255 L396.784,125.255 L396.784,215.764 L306.274,215.764 L306.274,125.255" stroke="none" fill-opacity="0.75" fill="#FF4040"/>
<path d="M306.274,125.255 L396.784,125.255 L396.784,215.764 L306.274,215.764 L306.274,125.255" stroke="black" fill="none"/>
</g>
<g id="slice:53:3_3_2:14">
<path d="M306.274,306.274 L396.784,306.274 L396.784,396.784 L306.274,396.784 L306.274,306.274" stroke="none" fill-opacity="0.75" fill="#FF4040"/>
<path d="M306.274,306.274 L396.784,306.274 L396.784,396.784 L306.274,396.784 L306.274,306.274" stroke="black" fill="none"/>
</g>
<g id="slice:54:4_2_2:14">
<path d="M396.784,215.764 L487.293,215.764 L487.293,306.274 L396.784,306.274 L396.784,215.764" stroke="none" fill-opacity="0.75" fill="#FF4040"/>
<path d="M396.784,215.764 L487.293,215.764 L487.293,306.274 L396.784,306.274 L396.784,215.764" stroke="black" fill="none"/>
</g>
<g id="slice:55:4_4_2:14">
<path d="M396.784,396.784 L487.293,396.784 L487.293,487.293 L396.784,487.293 L396.784,396.784" stroke="none" fill-opacity="0.75" fill="#FF4040"/>
<path d="M396.784,396.784 L487.293,396.784 L487.293,487.293 L396.784,487.293 L396.784,396.784" stroke="black" fill="none"/>
</g>
<g id="slice:36:1_2_2:15">
<path d="M799.058,215.764 L889.568,215.764 L889.568,306.274 L799.058,306.274 L799.058,215.764" stroke="none" fill-opacity="0.75" fill="#FF4040"/>
<path d="M799.058,215.764 L889.568,215.764 L889.568,306.274 L799.058,306.274 L799.058,215.764" stroke="black" fill="none"/>
</g>
<g id="slice:37:1_4_2:15">
<path d="M799.058,396.784 L889.568,396.784 L889.568,487.293 L799.058,487.293 L799.058,396.784" stroke="none" fill-opacity="0.75" fill="#FF4040"/>
<path d="M799.058,396.784 L889.568,396.784 L889.568,487.293 L799.058,487.293 L799.058,396.784" stroke="black" fill="none"/>
</g>
<g id="slice:38:2_1_2:15">
<path d="M889.568,125.255 L980.077,125.255 L980.077,215.764 L889.568,215.764 L889.568,125.255" stroke="none" fill-opacity="0.75" fill="#FF4040"/>
<path d="M889.568,125.255 L980.077,125.255 L980.077,215.764 L889.568,215.764 L889.568,125.255" stroke="black" fill="none"/>
</g>
<g id="slice:39:2_3_2:15">
<path d="M889.568,306.274 L980.077,306.274 L980.077,396.784 L889.568,396.784 L889.568,306.274" stroke="none" fill-opacity="0.75" fill="#FF4040"/>
<path d="M889.568,306.274 L980.077,306.274 L980.077,396.784 L889.568,396.784 L889.568,306.274" stroke="black" fill="none"/>
</g>
<g id="slice:41:3_2_2:15">
<path d="M980.077,215.764 L1070.59,215.764 L1070.59,306.274 L980.077,306.274 L980.077,215.764" stroke="none" fill-opacity="0.75" fill="#FF4040"/>
<path d="M980.077,215.764 L1070.59,215.764 L1070.59,306.274 L980.077,306.274 L980.077,215.764" stroke="black" fill="none"/>
</g>
<g id="slice:42:3_4_2:15">
<path d="M980.077,396.784 L1070.59,396.784 L1070.59,487.293 L980.077,487.293 L980.077,396.784" stroke="none" fill-opacity="0.75" fill="#FF4040"/>
<path d="M980.077,396.784 L1070.59,396.784 L1070.59,487.293 L980.077,487.293 L980.077,396.784" stroke="black" fill="none"/>
</g>
<g id="slice:43:4_1_2:15">
<path d="M1070.59,125.255 L1161.1,125.255 L1161.1,215.764 L1070.59,215.764 L1070.59,125.255" stroke="none" fill-opacity="0.75" fill="#FF4040"/>
<path d="M1070.59,125.255 L1161.1,125.255 L1161.1,215.764 L1070.59,215.764 L1070.59,125.255" stroke="black" fill="none"/>
</g>
<g id="slice:44:4_3_2:15">
<path d="M1070.59,306.274 L1161.1,306.274 L1161.1,396.784 L1070.59,396.784 L1070.59,306.274" stroke="none" fill-opacity="0.75" fill="#FF4040"/>
<path d="M1070.59,306.274 L1161.1,306.274 L1161.1,396.784 L1070.59,396.784 L1070.59,306.274" stroke="black" fill="none"/>
</g>
<g id="slice:48:1_1_2:15">
<path d="M799.058,125.255 L889.568,125.255 L889.568,215.764 L799.058,215.764 L799.058,125.255" stroke="none" fill-opacity="0.75" fill="#4DA6FF"/>
<path d="M799.058,125.255 L889.568,125.255 L889.568,215.764 L799.058,215.764 L799.058,125.255" stroke="black" fill="none"/>
</g>
<g id="slice:49:1_3_2:15">
<path d="M799.058,306.274 L889.568,306.274 L889.568,396.784 L799.058,396.784 L799.058,306.274" stroke="none" fill-opacity="0.75" fill="#4DA6FF"/>
<path d="M799.058,306.274 L889.568,306.274 L889.568,396.784 L799.058,396.784 L799.058,306.274" stroke="black" fill="none"/>
</g>
<g id="slice:50:2_2_2:15">
<path d="M889.568,215.764 L980.077,215.764 L980.077,306.274 L889.568,306.274 L889.568,215.764" stroke="none" fill-opacity="0.75" fill="#4DA6FF"/>
<path d="M889.568,215.764 L980.077,215.764 L980.077,306.274 L889.568,306.274 L889.568,215.764" stroke="black" fill="none"/>
</g>
<g id="slice:51:2_4_2:15">
<path d="M889.568,396.784 L980.077,396.784 L980.077,487.293 L889.568,487.293 L889.568,396.784" stroke="none" fill-opacity="0.75" fill="#4DA6FF"/>
<path d="M889.568,396.784 L980.077,396.784 L980.077,487.293 L889.568,487.293 L889.568,396.784" stroke="black" fill="none"/>
</g>
<g id="slice:52:3_1_2:15">
<path d="M980.077,125.255 L1070.59,125.255 L1070.59,215.764 L980.077,215.764 L980.077,125.255" stroke="none" fill-opacity="0.75" fill="#4DA6FF"/>
<path d="M980.077,125.255 L1070.59,125.255 L1070.59,215.764 L980.077,215.764 L980.077,125.255" stroke="black" fill="none"/>
</g>
<g id="slice:53:3_3_2:15">
<path d="M980.077,306.274 L1070.59,306.274 L1070.59,396.784 L980.077,396.784 L980.077,306.274" stroke="none" fill-opacity="0.75" fill="#4DA6FF"/>
<path d="M980.077,306.274 L1070.59,306.274 L1070.59,396.784 L980.077,396.784 L980.077,306.274" stroke="black" fill="none"/>
</g>
<g id="slice:54:4_2_2:15">
<path d="M1070.59,215.764 L1161.1,215.764 L1161.1,306.274 L1070.59,306.274 L1070.59,215.764" stroke="none" fill-opacity="0.75" fill="#4DA6FF"/>
<path d="M1070.59,215.764 L1161.1,215.764 L1161.1,306.274 L1070.59,306.274 L1070.59,215.764" stroke="black" fill="none"/>
</g>
<g id="slice:55:4_4_2:15">
<path d="M1070.59,396.784 L1161.1,396.784 L1161.1,487.293 L1070.59,487.293 L1070.59,396.784" stroke="none" fill-opacity="0.75" fill="#4DA6FF"/>
<path d="M1070.59,396.784 L1161.1,396.784 L1161.1,487.293 L1070.59,487.293 L1070.59,396.784" stroke="black" fill="none"/>
</g>
<g id="slice:40:2_5_2:14">
<path d="M215.764,487.293 C248.219 500.093, 273.819 500.093, 306.274 487.293 C273.819 474.493, 248.219 474.493, 215.764 487.293" stroke="none" fill="#4DA6FF"/>
<path d="M215.764,487.293 C248.219 500.093, 273.819 500.093, 306.274 487.293 C273.819 474.493, 248.219 474.493, 215.764 487.293" stroke="black" fill="none"/>
</g>
<g id="slice:45:4_5_2:14">
<path d="M396.784,487.293 C429.239 500.093, 454.839 500.093, 487.293 487.293 C454.839 474.493, 429.239 474.493, 396.784 487.293" stroke="none" fill="#4DA6FF"/>
<path d="M396.784,487.293 C429.239 500.093, 454.839 500.093, 487.293 487.293 C454.839 474.493, 429.239 474.493, 396.784 487.293" stroke="black" fill="none"/>
</g>
<g id="slice:46:1_0_2:14">
<path d="M125.255,125.255 C157.71 138.055, 183.31 138.055, 215.764 125.255 C183.31 112.455, 157.71 112.455, 125.255 125.255" stroke="none" fill="#4DA6FF"/>
<path d="M125.255,125.255 C157.71 138.055, 183.31 138.055, 215.764 125.255 C183.31 112.455, 157.71 112.455, 125.255 125.255" stroke="black" fill="none"/>
</g>
<g id="slice:47:3_0_2:14">
<path d="M306.274,125.255 C338.729 138.055, 364.329 138.055, 396.784 125.255 C364.329 112.455, 338.729 112.455, 306.274 125.255" stroke="none" fill="#4DA6FF"/>
<path d="M306.274,125.255 C338.729 138.055, 364.329 138.055, 396.784 125.255 C364.329 112.455, 338.729 112.455, 306.274 125.255" stroke="black" fill="none"/>
</g>
<g id="slice:56:5_1_2:14">
<path d="M487.293,125.255 C474.493 157.71, 474.493 183.31, 487.293 215.764 C500.093 183.31, 500.093 157.71, 487.293 125.255" stroke="none" fill="#FF4040"/>
<path d="M487.293,125.255 C474.493 157.71, 474.493 183.31, 487.293 215.764 C500.093 183.31, 500.093 157.71, 487.293 125.255" stroke="black" fill="none"/>
</g>
<g id="slice:57:5_3_2:14">
<path d="M487.293,306.274 C474.493 338.729, 474.493 364.329, 487.293 396.784 C500.093 364.329, 500.093 338.729, 487.293 306.274" stroke="none" fill="#FF4040"/>
<path d="M487.293,306.274 C474.493 338.729, 474.493 364.329, 487.293 396.784 C500.093 364.329, 500.093 338.729, 487.293 306.274" stroke="black" fill="none"/>
</g>
<g id="slice:58:0_2_2:14">
<path d="M125.255,215.764 C112.455 248.219, 112.455 273.819, 125.255 306.274 C138.055 273.819, 138.055 248.219, 125.255 215.764" stroke="none" fill="#FF4040"/>
<path d="M125.255,215.764 C112.455 248.219, 112.455 273.819, 125.255 306.274 C138.055 273.819, 138.055 248.219, 125.255 215.764" stroke="black" fill="none"/>
</g>
<g id="slice:59:0_4_2:14">
<path d="M125.255,396.784 C112.455 429.239, 112.455 454.839, 125.255 487.293 C138.055 454.839, 138.055 429.239, 125.255 396.784" stroke="none" fill="#FF4040"/>
<path d="M125.255,396.784 C112.455 429.239, 112.455 454.839, 125.255 487.293 C138.055 454.839, 138.055 429.239, 125.255 396.784" stroke="black" fill="none"/>
</g>
<g id="slice:40:2_5_2:15">
<path d="M889.568,487.293 C922.023 500.093, 947.622 500.093, 980.077 487.293 C947.622 474.493, 922.023 474.493, 889.568 487.293" stroke="none" fill="#FF4040"/>
<path d="M889.568,487.293 C922.023 500.093, 947.622 500.093, 980.077 487.293 C947.622 474.493, 922.023 474.493, 889.568 487.293" stroke="black" fill="none"/>
</g>
<g id="slice:45:4_5_2:15">
<path d="M1070.59,487.293 C1103.04 500.093, 1128.64 500.093, 1161.1 487.293 C1128.64 474.493, 1103.04 474.493, 1070.59 487.293" stroke="none" fill="#FF4040"/>
<path d="M1070.59,487.293 C1103.04 500.093, 1128.64 500.093, 1161.1 487.293 C1128.64 474.493, 1103.04 474.493, 1070.59 487.293" stroke="black" fill="none"/>
</g>
<g id="slice:46:1_0_2:15">
<path d="M799.058,125.255 C831.513 138.055, 857.113 138.055, 889.568 125.255 C857.113 112.455, 831.513 112.455, 799.058 125.255" stroke="none" fill="#FF4040"/>
<path d="M799.058,125.255 C831.513 138.055, 857.113 138.055, 889.568 125.255 C857.113 112.455, 831.513 112.455, 799.058 125.255" stroke="black" fill="none"/>
</g>
<g id="slice:47:3_0_2:15">
<path d="M980.077,125.255 C1012.53 138.055, 1038.13 138.055, 1070.59 125.255 C1038.13 112.455, 1012.53 112.455, 980.077 125.255" stroke="none" fill="#FF4040"/>
<path d="M980.077,125.255 C1012.53 138.055, 1038.13 138.055, 1070.59 125.255 C1038.13 112.455, 1012.53 112.455, 980.077 125.255" stroke="black" fill="none"/>
</g>
<g id="slice:56:5_1_2:15">
<path d="M1161.1,125.255 C1148.3 157.71, 1148.3 183.31, 1161.1 215.764 C1173.9 183.31, 1173.9 157.71, 1161.1 125.255" stroke="none" fill="#4DA6FF"/>
<path d="M1161.1,125.255 C1148.3 157.71, 1148.3 183.31, 1161.1 215.764 C1173.9 183.31, 1173.9 157.71, 1161.1 125.255" stroke="black" fill="none"/>
</g>
<g id="slice:57:5_3_2:15">
<path d="M1161.1,306.274 C1148.3 338.729, 1148.3 364.329, 1161.1 396.784 C1173.9 364.329, 1173.9 338.729, 1161.1 306.274" stroke="none" fill="#4DA6FF"/>
<path d="M1161.1,306.274 C1148.3 338.729, 1148.3 364.329, 1161.1 396.784 C1173.9 364.329, 1173.9 338.729, 1161.1 306.274" stroke="black" fill="none"/>
</g>
<g id="slice:58:0_2_2:15">
<path d="M799.058,215.764 C786.258 248.219, 786.258 273.819, 799.058 306.274 C811.858 273.819, 811.858 248.219, 799.058 215.764" stroke="none" fill="#4DA6FF"/>
<path d="M799.058,215.764 C786.258 248.219, 786.258 273.819, 799.058 306.274 C811.858 273.819, 811.858 248.219, 799.058 215.764" stroke="black" fill="none"/>
</g>
<g id="slice:59:0_4_2:15">
<path d="M799.058,396.784 C786.258 429.239, 786.258 454.839, 799.058 487.293 C811.858 454.839, 811.858 429.239, 799.058 396.784" stroke="none" fill="#4DA6FF"/>
<path d="M799.058,396.784 C786.258 429.239, 786.258 454.839, 799.058 487.293 C811.858 454.839, 811.858 429.239, 799.058 396.784" stroke="black" fill="none"/>
</g>
<g id="qubit_dots">
<circle id="qubit_dot:0:0_2:13" cx="80" cy="261.019" r="2" stroke="none" fill="black"/>
<circle id="qubit_dot:1:0_4:13" cx="80" cy="442.039" r="2" stroke="none" fill="black"/>
<circle id="qubit_dot:2:0.5_0.5:13" cx="125.255" cy="125.255" r="2" stroke="none" fill="black"/>
<circle id="qubit_dot:3:0.5_1.5:13" cx="125.255" cy="215.764" r="2" stroke="none" fill="black"/>
<circle id="qubit_dot:4:0.5_2.5:13" cx="125.255" cy="306.274" r="2" stroke="none" fill="black"/>
<circle id="qubit_dot:5:0.5_3.5:13" cx="125.255" cy="396.784" r="2" stroke="none" fill="black"/>
<circle id="qubit_dot:6:0.5_4.5:13" cx="125.255" cy="487.293" r="2" stroke="none" fill="black"/>
<circle id="qubit_dot:7:1_0:13" cx="170.51" cy="80" r="2" stroke="none" fill="black"/>
<circle id="qubit_dot:8:1_1:13" cx="170.51" cy="170.51" r="2" stroke="none" fill="black"/>
<circle id="qubit_dot:9:1_2:13" cx="170.51" cy="261.019" r="2" stroke="none" fill="black"/>
<circle id="qubit_dot:10:1_3:13" cx="170.51" cy="351.529" r="2" stroke="none" fill="black"/>
<circle id="qubit_dot:11:1_4:13" cx="170.51" cy="442.039" r="2" stroke="none" fill="black"/>
<circle id="qubit_dot:12:1.5_0.5:13" cx="215.764" cy="125.255" r="2" stroke="none" fill="black"/>
<circle id="qubit_dot:13:1.5_1.5:13" cx="215.764" cy="215.764" r="2" stroke="none" fill="black"/>
<circle id="qubit_dot:14:1.5_2.5:13" cx="215.764" cy="306.274" r="2" stroke="none" fill="black"/>
<circle id="qubit_dot:15:1.5_3.5:13" cx="215.764" cy="396.784" r="2" stroke="none" fill="black"/>
<circle id="qubit_dot:16:1.5_4.5:13" cx="215.764" cy="487.293" r="2" stroke="none" fill="black"/>
<circle id="qubit_dot:17:2_1:13" cx="261.019" cy="170.51" r="2" stroke="none" fill="black"/>
<circle id="qubit_dot:18:2_2:13" cx="261.019" cy="261.019" r="2" stroke="none" fill="black"/>
<circle id="qubit_dot:19:2_3:13" cx="261.019" cy="351.529" r="2" stroke="none" fill="black"/>
<circle id="qubit_dot:20:2_4:13" cx="261.019" cy="442.039" r="2" stroke="none" fill="black"/>
<circle id="qubit_dot:21:2_5:13" cx="261.019" cy="532.548" r="2" stroke="none" fill="black"/>
<circle id="qubit_dot:22:2.5_0.5:13" cx="306.274" cy="125.255" r="2" stroke="none" fill="black"/>
<circle id="qubit_dot:23:2.5_1.5:13" cx="306.274" cy="215.764" r="2" stroke="none" fill="black"/>
<circle id="qubit_dot:24:2.5_2.5:13" cx="306.274" cy="306.274" r="2" stroke="none" fill="black"/>
<circle id="qubit_dot:25:2.5_3.5:13" cx="306.274" cy="396.784" r="2" stroke="none" fill="black"/>
<circle id="qubit_dot:26:2.5_4.5:13" cx="306.274" cy="487.293" r="2" stroke="none" fill="black"/>
<circle id="qubit_dot:27:3_0:13" cx="351.529" cy="80" r="2" stroke="none" fill="black"/>
<circle id="qubit_dot:28:3_1:13" cx="351.529" cy="170.51" r="2" stroke="none" fill="black"/>
<circle id="qubit_dot:29:3_2:13" cx="351.529" cy="261.019" r="2" stroke="none" fill="black"/>
<circle id="qubit_dot:30:3_3:13" cx="351.529" cy="351.529" r="2" stroke="none" fill="black"/>
<circle id="qubit_dot:31:3_4:13" cx="351.529" cy="442.039" r="2" stroke="none" fill="black"/>
<circle id="qubit_dot:32:3.5_0.5:13" cx="396.784" cy="125.255" r="2" stroke="none" fill="black"/>
<circle id="qubit_dot:33:3.5_1.5:13" cx="396.784" cy="215.764" r="2" stroke="none" fill="black"/>
<circle id="qubit_dot:34:3.5_2.5:13" cx="396.784" cy="306.274" r="2" stroke="none" fill="black"/>
<circle id="qubit_dot:35:3.5_3.5:13" cx="396.784" cy="396.784" r="2" stroke="none" fill="black"/>
<circle id="qubit_dot:36:3.5_4.5:13" cx="396.784" cy="487.293" r="2" stroke="none" fill="black"/>
<circle id="qubit_dot:37:4_1:13" cx="442.039" cy="170.51" r="2" stroke="none" fill="black"/>
<circle id="qubit_dot:38:4_2:13" cx="442.039" cy="261.019" r="2" stroke="none" fill="black"/>
<circle id="qubit_dot:39:4_3:13" cx="442.039" cy="351.529" r="2" stroke="none" fill="black"/>
<circle id="qubit_dot:40:4_4:13" cx="442.039" cy="442.039" r="2" stroke="none" fill="black"/>
<circle id="qubit_dot:41:4_5:13" cx="442.039" cy="532.548" r="2" stroke="none" fill="black"/>
<circle id="qubit_dot:42:4.5_0.5:13" cx="487.293" cy="125.255" r="2" stroke="none" fill="black"/>
<circle id="qubit_dot:43:4.5_1.5:13" cx="487.293" cy="215.764" r="2" stroke="none" fill="black"/>
<circle id="qubit_dot:44:4.5_2.5:13" cx="487.293" cy="306.274" r="2" stroke="none" fill="black"/>
<circle id="qubit_dot:45:4.5_3.5:13" cx="487.293" cy="396.784" r="2" stroke="none" fill="black"/>
<circle id="qubit_dot:46:4.5_4.5:13" cx="487.293" cy="487.293" r="2" stroke="none" fill="black"/>
<circle id="qubit_dot:47:5_1:13" cx="532.548" cy="170.51" r="2" stroke="none" fill="black"/>
<circle id="qubit_dot:48:5_3:13" cx="532.548" cy="351.529" r="2" stroke="none" fill="black"/>
<circle id="qubit_dot:0:0_2:14" cx="753.803" cy="261.019" r="2" stroke="none" fill="black"/>
<circle id="qubit_dot:1:0_4:14" cx="753.803" cy="442.039" r="2" stroke="none" fill="black"/>
<circle id="qubit_dot:2:0.5_0.5:14" cx="799.058" cy="125.255" r="2" stroke="none" fill="black"/>
<circle id="qubit_dot:3:0.5_1.5:14" cx="799.058" cy="215.764" r="2" stroke="none" fill="black"/>
<circle id="qubit_dot:4:0.5_2.5:14" cx="799.058" cy="306.274" r="2" stroke="none" fill="black"/>
<circle id="qubit_dot:5:0.5_3.5:14" cx="799.058" cy="396.784" r="2" stroke="none" fill="black"/>
<circle id="qubit_dot:6:0.5_4.5:14" cx="799.058" cy="487.293" r="2" stroke="none" fill="black"/>
<circle id="qubit_dot:7:1_0:14" cx="844.313" cy="80" r="2" stroke="none" fill="black"/>
<circle id="qubit_dot:8:1_1:14" cx="844.313" cy="170.51" r="2" stroke="none" fill="black"/>
<circle id="qubit_dot:9:1_2:14" cx="844.313" cy="261.019" r="2" stroke="none" fill="black"/>
<circle id="qubit_dot:10:1_3:14" cx="844.313" cy="351.529" r="2" stroke="none" fill="black"/>
<circle id="qubit_dot:11:1_4:14" cx="844.313" cy="442.039" r="2" stroke="none" fill="black"/>
<circle id="qubit_dot:12:1.5_0.5:14" cx="889.568" cy="125.255" r="2" stroke="none" fill="black"/>
<circle id="qubit_dot:13:1.5_1.5:14" cx="889.568" cy="215.764" r="2" stroke="none" fill="black"/>
<circle id="qubit_dot:14:1.5_2.5:14" cx="889.568" cy="306.274" r="2" stroke="none" fill="black"/>
<circle id="qubit_dot:15:1.5_3.5:14" cx="889.568" cy="396.784" r="2" stroke="none" fill="black"/>
<circle id="qubit_dot:16:1.5_4.5:14" cx="889.568" cy="487.293" r="2" stroke="none" fill="black"/>
<circle id="qubit_dot:17:2_1:14" cx="934.823" cy="170.51" r="2" stroke="none" fill="black"/>
<circle id="qubit_dot:18:2_2:14" cx="934.823" cy="261.019" r="2" stroke="none" fill="black"/>
<circle id="qubit_dot:19:2_3:14" cx="934.823" cy="351.529" r="2" stroke="none" fill="black"/>
<circle id="qubit_dot:20:2_4:14" cx="934.823" cy="442.039" r="2" stroke="none" fill="black"/>
<circle id="qubit_dot:21:2_5:14" cx="934.823" cy="532.548" r="2" stroke="none" fill="black"/>
<circle id="qubit_dot:22:2.5_0.5:14" cx="980.077" cy="125.255" r="2" stroke="none" fill="black"/>
<circle id="qubit_dot:23:2.5_1.5:14" cx="980.077" cy="215.764" r="2" stroke="none" fill="black"/>
<circle id="qubit_dot:24:2.5_2.5:14" cx="980.077" cy="306.274" r="2" stroke="none" fill="black"/>
<circle id="qubit_dot:25:2.5_3.5:14" cx="980.077" cy="396.784" r="2" stroke="none" fill="black"/>
<circle id="qubit_dot:26:2.5_4.5:14" cx="980.077" cy="487.293" r="2" stroke="none" fill="black"/>
<circle id="qubit_dot:27:3_0:14" cx="1025.33" cy="80" r="2" stroke="none" fill="black"/>
<circle id="qubit_dot:28:3_1:14" cx="1025.33" cy="170.51" r="2" stroke="none" fill="black"/>
<circle id="qubit_dot:29:3_2:14" cx="1025.33" cy="261.019" r="2" stroke="none" fill="black"/>
<circle id="qubit_dot:30:3_3:14" cx="1025.33" cy="351.529" r="2" stroke="none" fill="black"/>
<circle id="qubit_dot:31:3_4:14" cx="1025.33" cy="442.039" r="2" stroke="none" fill="black"/>
<circle id="qubit_dot:32:3.5_0.5:14" cx="1070.59" cy="125.255" r="2" stroke="none" fill="black"/>
<circle id="qubit_dot:33:3.5_1.5:14" cx="1070.59" cy="215.764" r="2" stroke="none" fill="black"/>
<circle id="qubit_dot:34:3.5_2.5:14" cx="1070.59" cy="306.274" r="2" stroke="none" fill="black"/>
<circle id="qubit_dot:35:3.5_3.5:14" cx="1070.59" cy="396.784" r="2" stroke="none" fill="black"/>
<circle id="qubit_dot:36:3.5_4.5:14" cx="1070.59" cy="487.293" r="2" stroke="none" fill="black"/>
<circle id="qubit_dot:37:4_1:14" cx="1115.84" cy="170.51" r="2" stroke="none" fill="black"/>
<circle id="qubit_dot:38:4_2:14" cx="1115.84" cy="261.019" r="2" stroke="none" fill="black"/>
<circle id="qubit_dot:39:4_3:14" cx="1115.84" cy="351.529" r="2" stroke="none" fill="black"/>
<circle id="qubit_dot:40:4_4:14" cx="1115.84" cy="442.039" r="2" stroke="none" fill="black"/>
<circle id="qubit_dot:41:4_5:14" cx="1115.84" cy="532.548" r="2" stroke="none" fill="black"/>
<circle id="qubit_dot:42:4.5_0.5:14" cx="1161.1" cy="125.255" r="2" stroke="none" fill="black"/>
<circle id="qubit_dot:43:4.5_1.5:14" cx="1161.1" cy="215.764" r="2" stroke="none" fill="black"/>
<circle id="qubit_dot:44:4.5_2.5:14" cx="1161.1" cy="306.274" r="2" stroke="none" fill="black"/>
<circle id="qubit_dot:45:4.5_3.5:14" cx="1161.1" cy="396.784" r="2" stroke="none" fill="black"/>
<circle id="qubit_dot:46:4.5_4.5:14" cx="1161.1" cy="487.293" r="2" stroke="none" fill="black"/>
<circle id="qubit_dot:47:5_1:14" cx="1206.35" cy="170.51" r="2" stroke="none" fill="black"/>
<circle id="qubit_dot:48:5_3:14" cx="1206.35" cy="351.529" r="2" stroke="none" fill="black"/>
</g>
<rect x="154.51" y="245.019" width="32" height="32" stroke="black" fill="black"/>
<text dominant-baseline="central" text-anchor="middle" font-family="monospace" font-size="30" x="170.51" y="261.019" fill="white">M</text>
<rect x="154.51" y="426.039" width="32" height="32" stroke="black" fill="black"/>
<text dominant-baseline="central" text-anchor="middle" font-family="monospace" font-size="30" x="170.51" y="442.039" fill="white">M</text>
<rect x="245.019" y="154.51" width="32" height="32" stroke="black" fill="black"/>
<text dominant-baseline="central" text-anchor="middle" font-family="monospace" font-size="30" x="261.019" y="170.51" fill="white">M</text>
<rect x="245.019" y="335.529" width="32" height="32" stroke="black" fill="black"/>
<text dominant-baseline="central" text-anchor="middle" font-family="monospace" font-size="30" x="261.019" y="351.529" fill="white">M</text>
<rect x="245.019" y="516.548" width="32" height="32" stroke="black" fill="black"/>
<text dominant-baseline="central" text-anchor="middle" font-family="monospace" font-size="30" x="261.019" y="532.548" fill="white">M</text>
<rect x="335.529" y="245.019" width="32" height="32" stroke="black" fill="black"/>
<text dominant-baseline="central" text-anchor="middle" font-family="monospace" font-size="30" x="351.529" y="261.019" fill="white">M</text>
<rect x="335.529" y="426.039" width="32" height="32" stroke="black" fill="black"/>
<text dominant-baseline="central" text-anchor="middle" font-family="monospace" font-size="30" x="351.529" y="442.039" fill="white">M</text>
<rect x="426.039" y="154.51" width="32" height="32" stroke="black" fill="black"/>
<text dominant-baseline="central" text-anchor="middle" font-family="monospace" font-size="30" x="442.039" y="170.51" fill="white">M</text>
<rect x="426.039" y="335.529" width="32" height="32" stroke="black" fill="black"/>
<text dominant-baseline="central" text-anchor="middle" font-family="monospace" font-size="30" x="442.039" y="351.529" fill="white">M</text>
<rect x="426.039" y="516.548" width="32" height="32" stroke="black" fill="black"/>
<text dominant-baseline="central" text-anchor="middle" font-family="monospace" font-size="30" x="442.039" y="532.548" fill="white">M</text>
<rect x="154.51" y="64" width="32" height="32" stroke="black" fill="black"/>
<text dominant-baseline="central" text-anchor="middle" font-family="monospace" font-size="30" x="170.51" y="80" fill="white">M</text>
<rect x="335.529" y="64" width="32" height="32" stroke="black" fill="black"/>
<text dominant-baseline="central" text-anchor="middle" font-family="monospace" font-size="30" x="351.529" y="80" fill="white">M</text>
<rect x="154.51" y="154.51" width="32" height="32" stroke="black" fill="black"/>
<text dominant-baseline="central" text-anchor="middle" font-family="monospace" font-size="26" x="170.51" y="170.51" fill="white">M<tspan baseline-shift="sub" font-size="16">X</tspan></text>
<rect x="154.51" y="335.529" width="32" height="32" stroke="black" fill="black"/>
<text dominant-baseline="central" text-anchor="middle" font-family="monospace" font-size="26" x="170.51" y="351.529" fill="white">M<tspan baseline-shift="sub" font-size="16">X</tspan></text>
<rect x="245.019" y="245.019" width="32" height="32" stroke="black" fill="black"/>
<text dominant-baseline="central" text-anchor="middle" font-family="monospace" font-size="26" x="261.019" y="261.019" fill="white">M<tspan baseline-shift="sub" font-size="16">X</tspan></text>
<rect x="245.019" y="426.039" width="32" height="32" stroke="black" fill="black"/>
<text dominant-baseline="central" text-anchor="middle" font-family="monospace" font-size="26" x="261.019" y="442.039" fill="white">M<tspan baseline-shift="sub" font-size="16">X</tspan></text>
<rect x="335.529" y="154.51" width="32" height="32" stroke="black" fill="black"/>
<text dominant-baseline="central" text-anchor="middle" font-family="monospace" font-size="26" x="351.529" y="170.51" fill="white">M<tspan baseline-shift="sub" font-size="16">X</tspan></text>
<rect x="335.529" y="335.529" width="32" height="32" stroke="black" fill="black"/>
<text dominant-baseline="central" text-anchor="middle" font-family="monospace" font-size="26" x="351.529" y="351.529" fill="white">M<tspan baseline-shift="sub" font-size="16">X</tspan></text>
<rect x="426.039" y="245.019" width="32" height="32" stroke="black" fill="black"/>
<text dominant-baseline="central" text-anchor="middle" font-family="monospace" font-size="26" x="442.039" y="261.019" fill="white">M<tspan baseline-shift="sub" font-size="16">X</tspan></text>
<rect x="426.039" y="426.039" width="32" height="32" stroke="black" fill="black"/>
<text dominant-baseline="central" text-anchor="middle" font-family="monospace" font-size="26" x="442.039" y="442.039" fill="white">M<tspan baseline-shift="sub" font-size="16">X</tspan></text>
<rect x="516.548" y="154.51" width="32" height="32" stroke="black" fill="black"/>
<text dominant-baseline="central" text-anchor="middle" font-family="monospace" font-size="26" x="532.548" y="170.51" fill="white">M<tspan baseline-shift="sub" font-size="16">X</tspan></text>
<rect x="516.548" y="335.529" width="32" height="32" stroke="black" fill="black"/>
<text dominant-baseline="central" text-anchor="middle" font-family="monospace" font-size="26" x="532.548" y="351.529" fill="white">M<tspan baseline-shift="sub" font-size="16">X</tspan></text>
<rect x="64" y="245.019" width="32" height="32" stroke="black" fill="black"/>
<text dominant-baseline="central" text-anchor="middle" font-family="monospace" font-size="26" x="80" y="261.019" fill="white">M<tspan baseline-shift="sub" font-size="16">X</tspan></text>
<rect x="64" y="426.039" width="32" height="32" stroke="black" fill="black"/>
<text dominant-baseline="central" text-anchor="middle" font-family="monospace" font-size="26" x="80" y="442.039" fill="white">M<tspan baseline-shift="sub" font-size="16">X</tspan></text>
<rect x="783.058" y="109.255" width="32" height="32" stroke="black" fill="white"/>
<text dominant-baseline="central" text-anchor="middle" font-family="monospace" font-size="30" x="799.058" y="125.255">H</text>
<rect x="783.058" y="199.764" width="32" height="32" stroke="black" fill="white"/>
<text dominant-baseline="central" text-anchor="middle" font-family="monospace" font-size="30" x="799.058" y="215.764">H</text>
<rect x="783.058" y="290.274" width="32" height="32" stroke="black" fill="white"/>
<text dominant-baseline="central" text-anchor="middle" font-family="monospace" font-size="30" x="799.058" y="306.274">H</text>
<rect x="783.058" y="380.784" width="32" height="32" stroke="black" fill="white"/>
<text dominant-baseline="central" text-anchor="middle" font-family="monospace" font-size="30" x="799.058" y="396.784">H</text>
<rect x="783.058" y="471.293" width="32" height="32" stroke="black" fill="white"/>
<text dominant-baseline="central" text-anchor="middle" font-family="monospace" font-size="30" x="799.058" y="487.293">H</text>
<rect x="873.568" y="109.255" width="32" height="32" stroke="black" fill="white"/>
<text dominant-baseline="central" text-anchor="middle" font-family="monospace" font-size="30" x="889.568" y="125.255">H</text>
<rect x="873.568" y="199.764" width="32" height="32" stroke="black" fill="white"/>
<text dominant-baseline="central" text-anchor="middle" font-family="monospace" font-size="30" x="889.568" y="215.764">H</text>
<rect x="873.568" y="290.274" width="32" height="32" stroke="black" fill="white"/>
<text dominant-baseline="central" text-anchor="middle" font-family="monospace" font-size="30" x="889.568" y="306.274">H</text>
<rect x="873.568" y="380.784" width="32" height="32" stroke="black" fill="white"/>
<text dominant-baseline="central" text-anchor="middle" font-family="monospace" font-size="30" x="889.568" y="396.784">H</text>
<rect x="873.568" y="471.293" width="32" height="32" stroke="black" fill="white"/>
<text dominant-baseline="central" text-anchor="middle" font-family="monospace" font-size="30" x="889.568" y="487.293">H</text>
<rect x="964.077" y="109.255" width="32" height="32" stroke="black" fill="white"/>
<text dominant-baseline="central" text-anchor="middle" font-family="monospace" font-size="30" x="980.077" y="125.255">H</text>
<rect x="964.077" y="199.764" width="32" height="32" stroke="black" fill="white"/>
<text dominant-baseline="central" text-anchor="middle" font-family="monospace" font-size="30" x="980.077" y="215.764">H</text>
<rect x="964.077" y="290.274" width="32" height="32" stroke="black" fill="white"/>
<text dominant-baseline="central" text-anchor="middle" font-family="monospace" font-size="30" x="980.077" y="306.274">H</text>
<rect x="964.077" y="380.784" width="32" height="32" stroke="black" fill="white"/>
<text dominant-baseline="central" text-anchor="middle" font-family="monospace" font-size="30" x="980.077" y="396.784">H</text>
<rect x="964.077" y="471.293" width="32" height="32" stroke="black" fill="white"/>
<text dominant-baseline="central" text-anchor="middle" font-family="monospace" font-size="30" x="980.077" y="487.293">H</text>
<rect x="1054.59" y="109.255" width="32" height="32" stroke="black" fill="white"/>
<text dominant-baseline="central" text-anchor="middle" font-family="monospace" font-size="30" x="1070.59" y="125.255">H</text>
<rect x="1054.59" y="199.764" width="32" height="32" stroke="black" fill="white"/>
<text dominant-baseline="central" text-anchor="middle" font-family="monospace" font-size="30" x="1070.59" y="215.764">H</text>
<rect x="1054.59" y="290.274" width="32" height="32" stroke="black" fill="white"/>
<text dominant-baseline="central" text-anchor="middle" font-family="monospace" font-size="30" x="1070.59" y="306.274">H</text>
<rect x="1054.59" y="380.784" width="32" height="32" stroke="black" fill="white"/>
<text dominant-baseline="central" text-anchor="middle" font-family="monospace" font-size="30" x="1070.59" y="396.784">H</text>
<rect x="1054.59" y="471.293" width="32" height="32" stroke="black" fill="white"/>
<text dominant-baseline="central" text-anchor="middle" font-family="monospace" font-size="30" x="1070.59" y="487.293">H</text>
<rect x="1145.1" y="109.255" width="32" height="32" stroke="black" fill="white"/>
<text dominant-baseline="central" text-anchor="middle" font-family="monospace" font-size="30" x="1161.1" y="125.255">H</text>
<rect x="1145.1" y="199.764" width="32" height="32" stroke="black" fill="white"/>
<text dominant-baseline="central" text-anchor="middle" font-family="monospace" font-size="30" x="1161.1" y="215.764">H</text>
<rect x="1145.1" y="290.274" width="32" height="32" stroke="black" fill="white"/>
<text dominant-baseline="central" text-anchor="middle" font-family="monospace" font-size="30" x="1161.1" y="306.274">H</text>
<rect x="1145.1" y="380.784" width="32" height="32" stroke="black" fill="white"/>
<text dominant-baseline="central" text-anchor="middle" font-family="monospace" font-size="30" x="1161.1" y="396.784">H</text>
<rect x="1145.1" y="471.293" width="32" height="32" stroke="black" fill="white"/>
<text dominant-baseline="central" text-anchor="middle" font-family="monospace" font-size="30" x="1161.1" y="487.293">H</text>
<g id="tick_borders">
<rect id="tick_border:0:0_0:13" x="0" y="0" width="612.548" height="612.548" stroke="black" fill="none"/>
<rect id="tick_border:0:0_1:13" x="673.803" y="0" width="612.548" height="612.548" stroke="black" fill="none"/>
</g>
</svg>
